HIERARCHY
ROOT Spine
{
    OFFSET 0.0 0.0 -0.0
    CHANNELS 6 Xposition Yposition Zposition Zrotation Xrotation Yrotation
    JOINT ShoulderCenter
    {
        OFFSET 0.0 30.426607131958008 0.0
        CHANNELS 3 Zrotation Xrotation Yrotation
        JOINT LeftShoulder
        {
            OFFSET 19.778854370117188 0.0 0.0
            CHANNELS 3 Zrotation Xrotation Yrotation
            JOINT LeftElbow
            {
                OFFSET 26.16524887084961 0.0 0.0
                CHANNELS 3 Zrotation Xrotation Yrotation
                JOINT LeftHand
                {
                    OFFSET 33.04497528076172 0.0 0.0
                    CHANNELS 3 Zrotation Xrotation Yrotation
                    End Site
                    {
                        OFFSET 13.21799087524414 0.0 0.0
                    }
                }
            }
        }
        JOINT RightShoulder
        {
            OFFSET -19.778854370117188 0.0 0.0
            CHANNELS 3 Zrotation Xrotation Yrotation
            JOINT RightElbow
            {
                OFFSET -26.16524887084961 0.0 0.0
                CHANNELS 3 Zrotation Xrotation Yrotation
                JOINT RightHand
                {
                    OFFSET -33.04497528076172 0.0 0.0
                    CHANNELS 3 Zrotation Xrotation Yrotation
                    End Site
                    {
                        OFFSET -13.21799087524414 0.0 0.0
                    }
                }
            }
        }
        End Site
        {
            OFFSET 0.0 12.170642852783203 0.0
        }
    }
    JOINT LeftHip
    {
        OFFSET 15.23478693940448 -15.23478693940448 0.0
        CHANNELS 3 Zrotation Xrotation Yrotation
        JOINT LeftKnee
        {
            OFFSET 0.0 -41.67684555053711 0.0
            CHANNELS 3 Zrotation Xrotation Yrotation
            JOINT LeftFoot
            {
                OFFSET 0.0 -47.15623092651367 0.0
                CHANNELS 3 Zrotation Xrotation Yrotation
                End Site
                {
                    OFFSET 0.0 0.0 18.86249351501465
                }
            }
        }
    }
    JOINT RightHip
    {
        OFFSET -15.23478693940448 -15.23478693940448 0.0
        CHANNELS 3 Zrotation Xrotation Yrotation
        JOINT RightKnee
        {
            OFFSET 0.0 -41.67684555053711 0.0
            CHANNELS 3 Zrotation Xrotation Yrotation
            JOINT RightFoot
            {
                OFFSET 0.0 -47.15623092651367 0.0
                CHANNELS 3 Zrotation Xrotation Yrotation
                End Site
                {
                    OFFSET 0.0 0.0 18.86249351501465
                }
            }
        }
    }
}
MOTION
Frames: 9
Frame Time: 0.03333333333333333
-3.5999999046325684 15.899999618530273 33.099998474121094 -1.11239942079351 -4.256083563407636 -3.043397855845781 -6.557002925101124e-08 5.392564190400536e-08 4.7948956923579615 92.33528835831132 -2.177646969592513 166.67209408878014 7.013962211316316e-06 2.957385646400156e-06 34.41612499076787 2.7829853462805768e-15 -3.1805546814635164e-15 1.5902773407317582e-15 -93.20108101352689 7.689854444616862 -158.02875742172125 -3.5848331250488367e-06 6.298593458929293e-07 -39.15710228106575 2.782985346280577e-15 0.0 0.0 6.066060831765139 3.7264751991317127 -24.958430256366565 1.7944324243633778 6.525084003265332 -20.002488705389418 4.482873583957193e-33 3.975693351829397e-16 -1.292100339344554e-15 -19.038925293666455 6.194446499491315 77.25013090292911 -12.980556349973448 -3.6424168753061315 -120.49207560288063 0.0 0.0 -3.975693351829395e-16
-3.5999999046325684 15.899999618530273 33.099998474121094 -1.1123994039569516 -4.440402877577336 -2.696007294702601 -5.041778290499173e-08 -1.6889671789775147e-07 4.594412817180784 92.1990050895335 -3.8275294744397446 166.69286987924522 -1.737916850977595e-06 1.0332093888873603e-06 34.759504568721624 2.782985346280577e-15 -3.862168010793889e-32 -1.5902773407317584e-15 -93.30556094950606 7.434876240147624 -157.85071983763356 -2.4349016050912678e-06 -1.3085452365076089e-06 -39.44674721283838 -2.3854160110976384e-15 6.620859447075238e-32 -3.1805546814635176e-15 6.086401510668187 3.734403337109627 -24.969310236234882 1.7130632131880443 6.751284382377063 -20.614863639495066 7.951386703658791e-16 -4.689775441678294e-32 -6.758678698109972e-15 -18.971703272819532 6.477908638626094 76.6828999093175 -13.134327771244648 -3.5570100403092026 -119.33853192838582 -1.5902773407317588e-15 0.0 0.0
-3.5999999046325684 15.899999618530273 33.099998474121094 -1.112399427035193 -4.256083657685302 -2.7176416947741937 -5.0587624715101625e-08 2.3010418128196404e-07 4.464367497195319 91.8755358951563 -4.10879162092376 166.64670600545296 1.140418968650345e-06 -5.62185125342123e-07 35.968080259324076 2.3854160110976376e-15 3.1805546814635168e-15 -6.620859447075238e-32 -93.36204394933061 7.522053009570844 -158.10173083990188 -1.6225845264990766e-06 -1.0826117872143588e-07 -39.99680381730535 -4.373262687012335e-15 -1.5902773407317584e-15 1.5902773407317584e-15 5.94891779756921 3.6864044917964978 -25.409736339019055 1.8411415069724202 6.707292031079426 -20.079179953357546 7.951386703658792e-16 6.896728590703373e-33 9.93923337957349e-16 -18.949145242395797 6.1608607488634215 78.40069095297848 -13.324871575400298 -3.1805899572024336 -124.59726533063744 0.0 0.0 -7.951386703658792e-16
-3.5 15.899999618530273 33.099998474121094 -1.1123999930418111 -4.071676540364953 -2.387604628167297 -3.080766497530093e-08 5.030918072440583e-07 4.151690394404574 91.77626788688264 -5.460080745423126 166.56957970531033 -2.1255415236050154e-07 3.735228777480724e-07 37.2450039631687 -7.951386703658792e-16 -2.2069531490250793e-32 3.1805546814635168e-15 -93.34546170228982 6.849387537788955 -158.03091078743404 -2.2770925982059084e-06 -2.03858774082033e-06 -40.71270435048615 -2.3854160110976376e-15 1.5902773407317584e-15 3.310429723537619e-32 5.976457921292817 3.468891526848484 -26.06745124532237 1.800202439594673 6.718347852265075 -20.28701950982566 -9.655420026984722e-33 3.975693351829395e-16 2.7829853462805764e-15 -18.763550782870496 5.967951332509723 76.41361560084519 -13.091802892094996 -3.6040807609848304 -116.08758042284882 4.1380371544220234e-32 -2.3854160110976368e-15 1.987846675914697e-15
-3.5 15.899999618530273 33.099998474121094 -1.1123999930418111 -4.071676540364953 -2.387604628167297 -3.080766497530093e-08 5.030918072440583e-07 4.151690394404574 91.73894367742041 -6.454402229336455 166.3425352083878 -1.1169134292608344e-06 -1.1034675118458696e-06 38.41081453239029 -6.7586786981099735e-15 1.8759101766713175e-31 -3.1805546814635168e-15 -93.33214844238672 6.816626146189156 -158.03249406308038 -1.3028988553111032e-06 -1.246664564398084e-06 -41.319210116620454 5.565970692561156e-15 1.5902773407317588e-15 1.5902773407317588e-15 5.988628392735472 3.467296174612221 -25.730982796835853 1.6994857403587187 6.62781934324742 -19.71854072338607 7.951386703658792e-16 -6.207055731633036e-33 -8.945310041616142e-16 -18.717476363155058 5.9643681455708055 77.31766199283175 -13.239543345285975 -3.492683957361284 -119.29118619456419 1.5902773407317582e-15 1.1034765745125397e-31 7.95138670365879e-15
-3.5 15.899999618530273 33.099998474121094 -1.1123998992580477 -4.256084094303989 -2.4162104541201637 -7.127764432946841e-08 6.545689508320729e-07 4.1897079850187104 91.47504398590738 -7.470290055877187 166.12722067592136 2.9311188418635914e-06 2.7733928076725237e-06 38.84594239794681 -9.14409470920761e-15 2.537996121378841e-31 -3.1805546814635168e-15 -93.44292226393611 6.493029767618036 -157.92705278636743 3.3595956053768865e-06 -3.10294520224709e-06 -41.61005623688974 3.9756933518293955e-16 5.517382872562698e-33 1.5902773407317582e-15 5.968152010238315 3.655113637809305 -25.689680099375916 1.7147686601598233 6.630719570124492 -19.618913784033094 7.951386703658792e-16 -7.951386703658792e-16 8.945310041616142e-16 -18.60545271054425 6.140119640696329 76.77726228845098 -13.129743525128113 -3.4812184704232965 -117.47695533482866 1.5902773407317584e-15 -3.1805546814635168e-15 7.951386703658792e-16
-3.5 15.899999618530273 33.099998474121094 -1.2977404295467363 -4.2557948173789715 -2.4301856729769393 1.2367320572497542e-07 -1.3175206903262672e-07 4.029941336486715 91.47983225680218 -8.032464666334098 166.10453724170387 3.7884045585111664e-06 9.62107652213531e-07 39.27188832942363 -1.987846675914698e-15 -5.517382872562698e-32 3.1805546814635168e-15 -93.26536829377014 5.760403237519321 -158.11153282710222 2.467049387710718e-06 1.2560669752736898e-06 -41.5881627484185 -7.951386703658792e-16 1.5902773407317584e-15 1.1034765745125397e-32 6.152865293820124 3.6626206088563977 -25.690256664313583 1.7147686601598233 6.630719570124492 -19.618913784033094 7.951386703658792e-16 -7.951386703658792e-16 8.945310041616142e-16 -18.42105631055691 6.147185849528592 76.77987709310827 -13.129743525128113 -3.4812184704232965 -117.47695533482866 1.5902773407317584e-15 -3.1805546814635168e-15 7.951386703658792e-16
-3.5 15.899999618530273 33.099998474121094 -1.483054429647101 -4.071081263074481 -2.437865592756645 -3.054244246318178e-08 2.86139305875886e-07 3.8775657359761517 91.22077817875599 -8.089313965588934 166.48165681507632 -1.933992850774103e-06 -5.198027527301457e-07 39.068789275729515 -5.565970692561154e-15 3.1805546814635168e-15 3.1805546814635168e-15 -93.04953982891664 5.630712321465303 -158.52704129611777 2.387394700131124e-07 2.5517235527226635e-07 -41.52827370761074 -2.2069531490250793e-32 -1.5902773407317582e-15 -1.5902773407317582e-15 6.3445256065085145 3.4863447195056305 -25.676738202375816 1.7147686601598233 6.630719570124492 -19.618913784033094 7.951386703658792e-16 -7.951386703658792e-16 8.945310041616142e-16 -18.222070278926175 5.98126105942556 76.71850847225721 -13.019331629021929 -3.4485668976127974 -116.23902888301149 1.5902773407317582e-15 7.951386703658791e-16 -2.385416011097637e-15
-3.4000000953674316 15.899999618530273 33.099998474121094 -1.2977407311521088 -4.071399512529811 -2.4244625323427567 -3.838356196801299e-08 -1.2729357093517816e-07 3.8983027425059325 91.07433385908823 -8.968295670060547 166.66562918897333 8.704797865352175e-07 4.852475311296277e-06 39.00642420814685 -7.553817368475852e-15 -3.1805546814635168e-15 -2.0966054915738252e-31 -93.19192173421531 6.256481551502289 -158.7838409336394 -2.9293888327147188e-06 2.08607653280034e-06 -41.50396595227997 7.553817368475852e-15 1.0483027457869126e-31 1.5902773407317584e-15 6.159797489225345 3.4788394838681302 -26.02354390004359 1.6743726186117824 6.640991684062953 -19.820364591815707 1.034509288605506e-33 -1.1927080055488188e-15 9.93923337957349e-17 -18.460903408813248 6.11399788020647 76.02210657756777 -13.205441654666254 -3.648582683322916 -115.07743156893768 -1.5902773407317588e-15 -7.951386703658794e-16 -7.951386703658794e-16
